# xmcd CD database file
#
# Track frame offsets:
#	150
#	36098
#	81462
#	129468
#	162858
#	210978
#	242960
#	282170
#
# Disc length: 4411 seconds
#
# Revision: 1
# Processed by: cddbd v1.5.2PL0 Copyright (c) Steve Scherf et al.
# Submitted via: CDex 1.51
#
DISCID=6a113908
DTITLE=Chris Cleave - Little Bee
DYEAR=2011
DGENRE=Hörbuch
TTITLE0=501
TTITLE1=502
TTITLE2=503
TTITLE3=504
TTITLE4=505
TTITLE5=506
TTITLE6=507
TTITLE7=508
EXTD=YEAR: 2011
EXTT0=
EXTT1=
EXTT2=
EXTT3=
EXTT4=
EXTT5=
EXTT6=
EXTT7=
PLAYORDER=
